<svg width="54" height="52" viewBox="0 0 54 52" fill="none" xmlns="http://www.w3.org/2000/svg">
<path d="M36.4275 4.33337H17.5725C9.3825 4.33337 4.5 9.03504 4.5 16.9217V35.0567C4.5 42.965 9.3825 47.6667 17.5725 47.6667H36.405C44.595 47.6667 49.4775 42.965 49.4775 35.0784V16.9217C49.5 9.03504 44.6175 4.33337 36.4275 4.33337ZM41.6925 27.1484L32.04 36.4434C31.7025 36.7684 31.275 36.92 30.8475 36.92C30.42 36.92 29.9925 36.7684 29.655 36.4434C29.0025 35.815 29.0025 34.775 29.655 34.1467L36.4275 27.625H13.5C12.5775 27.625 11.8125 26.8884 11.8125 26C11.8125 25.1117 12.5775 24.375 13.5 24.375H36.4275L29.655 17.8534C29.0025 17.225 29.0025 16.185 29.655 15.5567C30.3075 14.9284 31.3875 14.9284 32.04 15.5567L41.6925 24.8517C42.0075 25.155 42.1875 25.5667 42.1875 26C42.1875 26.4334 42.0075 26.845 41.6925 27.1484Z" fill="#171717"/>
</svg>
