<svg width="231" height="288" viewBox="0 0 231 288" fill="none" xmlns="http://www.w3.org/2000/svg">
<ellipse cx="113" cy="249.5" rx="113" ry="38.5" fill="black" fill-opacity="0.08"/>
<path fill-rule="evenodd" clip-rule="evenodd" d="M134.996 50.2685C138.366 46.5178 140.647 41.9213 140.266 36.7707C139.168 21.9305 117.379 25.1951 113.141 32.6852C108.903 40.1753 109.406 59.1745 114.884 60.5132C117.069 61.047 121.722 59.7393 126.458 57.0326L123.485 76.9734H141.039L134.996 50.2685Z" fill="#B28B67"/>
<path fill-rule="evenodd" clip-rule="evenodd" d="M123.146 24.0526C125.46 23.6929 131.689 23.4456 132.838 23.4458C133.572 23.4458 134.367 23.6048 134.802 22.9657C135.158 22.4423 135.028 21.5572 135.134 20.9498C135.257 20.2443 135.433 19.5479 135.61 18.8532C136.114 16.8765 136.877 14.9959 137.944 13.2303C139.947 9.91769 142.881 7.32294 146.585 5.81307C150.675 4.14593 155.304 3.76419 159.704 4.10234C164.412 4.46412 168.674 5.93776 173.119 7.32454C177.355 8.64602 181.792 9.16619 186.223 8.52085C190.687 7.87073 194.06 5.57677 197.825 3.39953C201.68 1.17056 206.085 -0.287273 210.641 0.0478472C214.895 0.360775 218.815 2.026 222.333 4.2505C225.624 6.33179 228.339 8.83586 229.872 12.3601C231.521 16.1512 231.52 20.3125 228.808 23.6629C224.877 28.5193 217.579 29.7752 211.508 29.6504C207.996 29.5784 204.547 28.9705 201.231 27.8649C196.81 26.3903 192.989 23.891 188.852 21.8632C186.911 20.9117 184.904 20.1302 182.801 19.5672C180.76 19.0207 178.75 18.77 176.902 19.9391C174.947 21.1758 173.195 22.3906 170.958 23.1648C168.813 23.9075 166.54 24.3229 164.255 24.3062C159.807 24.2736 155.423 22.9598 151.104 22.0797C147.581 21.3622 143.813 20.6471 140.222 21.3368C138.723 21.6247 136.534 22.219 135.993 23.6955C145.102 25.2607 148.68 35.9418 146.112 43.7827C144.726 48.0148 136.395 52.962 133.155 50.7371C131.103 49.3276 132.349 47.4772 133.155 46.2557C134.699 43.9164 135.228 40.9114 132.37 39.2828C129.906 37.8781 127.315 41.2138 127.266 41.2102C126.588 41.1595 120.735 38.0211 116.702 33.4412C112.724 33.6648 112.121 31.1777 113.07 29.1437C114.02 27.1097 119.95 24.5499 123.146 24.0526Z" fill="#191847"/>
<path d="M148.353 255.191C117.25 255.191 92.0356 232.371 92.0356 204.222C92.0356 176.073 117.25 153.253 148.353 153.253C179.456 153.253 204.67 176.073 204.67 204.222C204.67 232.371 179.456 255.191 148.353 255.191Z" fill="#33DA80"/>
<path fill-rule="evenodd" clip-rule="evenodd" d="M41.9285 247.327C51.2997 227.662 58.0768 210.538 60.7971 201.504C65.455 186.035 68.9984 172.423 69.894 167.339C72.0296 155.217 53.4655 154.511 51.0117 160.536C47.2978 169.654 40.8142 199.612 33.0236 244.864L41.9285 247.327ZM150.629 185.612C142.031 182.39 111.921 172.306 97.3987 169.453C93.2257 168.633 89.1811 167.872 85.3784 167.184C74.0756 165.138 68.2196 184.471 79.1057 185.956C106.216 189.656 144.65 193.476 147.939 193.905C152.549 194.505 156.032 187.637 150.629 185.612Z" fill="#B28B67"/>
<path fill-rule="evenodd" clip-rule="evenodd" d="M78.4411 161.863L124.948 139.417V134.53H119.417C74.4238 145.4 51.4321 152.367 50.4424 155.429C50.4317 155.462 50.422 155.495 50.4131 155.528C50.3904 155.556 50.3682 155.585 50.3463 155.613C41.4295 167.24 36.0893 224.004 34.3366 228.255L51.4231 230.671C57.9591 207.692 78.8706 191.683 78.3151 164.161C78.4651 163.353 78.503 162.588 78.4411 161.863Z" fill="#1F28CF"/>
<path fill-rule="evenodd" clip-rule="evenodd" d="M121.084 175.194C125.339 174.387 129.258 173.666 132.611 173.108C154.27 169.506 160.586 158.514 156.852 134.53H116.946C110.427 136.305 76.5491 149.775 58.9719 156.94C47.3384 161.682 51.0056 178.775 57.5937 183.224C57.6295 183.497 57.748 183.682 57.9592 183.765C93.3983 197.692 121.434 190.384 130.799 192.719L135.131 179.763L121.084 175.194Z" fill="#2B44FF"/>
<path fill-rule="evenodd" clip-rule="evenodd" d="M147.689 183.553C150.011 183.763 151.659 184.094 152.634 184.545C153.819 185.093 155.453 186.08 157.534 187.506L139.451 222.66C135.795 222.1 134.347 220.778 135.106 218.692C135.864 216.607 136.476 214.866 136.941 213.469L137.663 193.577C137.677 193.195 138.016 192.895 138.419 192.908C138.426 192.908 138.433 192.909 138.44 192.909L141.668 193.101C143.501 191.694 144.711 190.421 145.297 189.282C145.773 188.356 146.037 186.896 146.087 184.9C146.107 184.134 146.777 183.529 147.585 183.547C147.619 183.548 147.654 183.55 147.689 183.553Z" fill="#E4E4E4"/>
<path fill-rule="evenodd" clip-rule="evenodd" d="M46.1934 243.681C47.0116 245.752 47.4207 247.302 47.4207 248.33C47.4207 249.58 47.201 251.405 46.7616 253.804H5.50975C4.43776 250.444 5.05657 248.63 7.36619 248.362C9.6758 248.094 11.5944 247.852 13.1221 247.636L32.2955 239.532C32.6645 239.376 33.0969 239.533 33.2614 239.883C33.2642 239.889 33.2669 239.895 33.2695 239.901L34.502 242.736C36.6401 243.681 38.3775 244.154 39.7143 244.154C40.8004 244.154 42.3003 243.738 44.214 242.907C44.9483 242.588 45.8166 242.893 46.1533 243.59C46.1678 243.62 46.1811 243.65 46.1934 243.681Z" fill="#E4E4E4"/>
<path fill-rule="evenodd" clip-rule="evenodd" d="M79.6019 115.541L53.1003 104.506C48.4578 100.12 43.9748 96.7864 39.6514 94.5052C38.3586 94.115 36.1499 93.9971 38.5064 97.2605C40.8629 100.524 43.1868 104.057 42.2451 105.201C41.3036 106.344 38.576 105.082 37.4984 106.942C36.78 108.182 41.3777 109.665 51.2916 111.391L71.1398 125.82L79.6019 115.541ZM186.745 118.581L171.757 121.4C186.83 148.032 194.913 162.147 196.007 163.745C198.467 167.341 196.171 173.93 195.323 177.4C200.644 178.574 198.546 170.981 205.279 172.567C211.425 174.014 216.636 177.727 222.367 172.719C223.071 172.103 223.587 170.179 221.185 169.191C215.2 166.732 206.358 162.127 204.924 160.339C202.969 157.901 196.909 143.981 186.745 118.581Z" fill="#B28B67"/>
<path fill-rule="evenodd" clip-rule="evenodd" d="M131.022 65.4149L124.698 64.3864C110.923 77.0559 105.301 107.494 96.1212 111.523C87.4417 115.332 75.1378 111.646 60.5127 106.669L56.0339 116.157C69.3222 129.787 97.6313 141.303 109.106 134.729C127.452 124.218 131.687 86.6773 131.022 65.4149Z" fill="#DB2721"/>
<path fill-rule="evenodd" clip-rule="evenodd" d="M158.592 140.771H102.632C100.075 140.771 100.557 137.27 100.927 135.504C105.193 115.116 121.846 93.1388 121.846 64.1172L137.988 61.7174C151.339 82.0761 155.956 107.142 158.592 140.771Z" fill="#DDE3E9"/>
<path fill-rule="evenodd" clip-rule="evenodd" d="M164.174 120.129C175.581 139.639 185.17 153.686 192.94 162.268L204.67 160.09C197.114 115.662 175.234 82.8708 139.029 61.7174H138.845H132.638C118.147 108.551 114.152 139.757 120.653 155.334H171.026C170.229 143.936 167.674 131.882 164.174 120.129Z" fill="#FF4133"/>
</svg>
