<svg width="230" height="107" viewBox="0 0 230 107" fill="none" xmlns="http://www.w3.org/2000/svg">
<path d="M11.7266 54.1406H16.3672C17.1328 56.625 18.3984 58.5703 20.1641 59.9766C21.9453 61.3672 24.0391 62.0625 26.4453 62.0625C27.8984 62.0625 29.0625 61.7578 29.9375 61.1484C30.8125 60.5234 31.25 59.7109 31.25 58.7109C31.25 57.1641 29.3516 55.8672 25.5547 54.8203C24.3203 54.4922 23.3516 54.2188 22.6484 54C20.3672 53.3125 18.6094 52.7266 17.375 52.2422C16.1406 51.7578 15.25 51.3047 14.7031 50.8828C13.4062 49.9141 12.4453 48.8438 11.8203 47.6719C11.2109 46.4844 10.9062 45.1406 10.9062 43.6406C10.9062 40.4062 12.1016 37.7969 14.4922 35.8125C16.8984 33.8281 20.0703 32.8359 24.0078 32.8359C26.0078 32.8359 27.875 33.0312 29.6094 33.4219C31.3438 33.8125 33.0234 34.4141 34.6484 35.2266L35.5156 33.6094H40.1328V44.7891H34.7188C34.1875 42.5078 33.1875 40.8125 31.7188 39.7031C30.25 38.5781 28.2891 38.0156 25.8359 38.0156C24.3984 38.0156 23.2109 38.3438 22.2734 39C21.3516 39.6562 20.8906 40.4609 20.8906 41.4141C20.8906 42.8516 22.6719 43.9375 26.2344 44.6719C27.1094 44.8594 27.7891 45.0078 28.2734 45.1172C33.2422 46.2578 36.7266 47.6797 38.7266 49.3828C40.7266 51.0703 41.7266 53.375 41.7266 56.2969C41.7266 59.5469 40.4922 62.1406 38.0234 64.0781C35.5703 66 32.2578 66.9609 28.0859 66.9609C26.1797 66.9609 24.3438 66.7422 22.5781 66.3047C20.8125 65.8828 19.0625 65.2344 17.3281 64.3594L16.1328 66.1406H11.7266V54.1406ZM61.1016 33.7969V38.3438H60.5625C59.5938 38.3438 58.9609 38.5 58.6641 38.8125C58.3672 39.1094 58.2188 39.8672 58.2188 41.0859V46.8984H67.1484V41.0859C67.1484 39.8672 66.9922 39.1094 66.6797 38.8125C66.3828 38.5 65.75 38.3438 64.7812 38.3438H64.2656V33.7969H82.125V38.3438H80.4844C79.3594 38.3438 78.6328 38.4922 78.3047 38.7891C77.9922 39.0703 77.8359 39.8359 77.8359 41.0859V58.6641C77.8359 59.9141 77.9922 60.6875 78.3047 60.9844C78.6328 61.2812 79.3594 61.4297 80.4844 61.4297H82.125V66H64.2656V61.4297H64.7812C65.7344 61.4297 66.3672 61.2734 66.6797 60.9609C66.9922 60.6484 67.1484 59.8828 67.1484 58.6641V51.4453H58.2188V58.6641C58.2188 59.8828 58.3672 60.6484 58.6641 60.9609C58.9766 61.2734 59.6094 61.4297 60.5625 61.4297H61.1016V66H43.2422V61.4297H44.8594C45.9375 61.4297 46.6484 61.3047 46.9922 61.0547C47.3359 60.7891 47.5078 59.9922 47.5078 58.6641V41.0859C47.5078 39.8203 47.3516 39.0469 47.0391 38.7656C46.7266 38.4844 46 38.3438 44.8594 38.3438H43.2422V33.7969H61.1016ZM116.992 33.7969V45.7969H111.883C111.555 44.2344 111.203 43.0156 110.828 42.1406C110.469 41.2656 110.023 40.5625 109.492 40.0312C108.883 39.4219 108.141 38.9922 107.266 38.7422C106.391 38.4766 104.977 38.3438 103.023 38.3438H102.062H97.9375V47.1797H99.1797C100.633 47.1797 101.648 46.8281 102.227 46.125C102.82 45.4219 103.117 44.1719 103.117 42.375V42.0938H107.148V56.7891H103.117C103.055 54.5391 102.758 53.0781 102.227 52.4062C101.711 51.7344 100.711 51.3984 99.2266 51.3984H97.9375V61.4297H103.633C105.836 61.4297 107.352 61.2969 108.18 61.0312C109.023 60.7656 109.672 60.3125 110.125 59.6719C110.625 58.9062 111.016 57.9766 111.297 56.8828C111.594 55.7734 111.789 54.3828 111.883 52.7109H117.18V66H83.1953V61.4297H84.8125C85.875 61.4297 86.5703 61.3047 86.8984 61.0547C87.2422 60.8047 87.4141 60.0859 87.4141 58.8984V58.6641V41.0859C87.4141 39.8359 87.2578 39.0703 86.9453 38.7891C86.6328 38.4922 85.9062 38.3438 84.7656 38.3438H83.1953V33.7969H116.992Z" fill="black"/>
<path d="M180.044 0C181.002 24.2076 202.408 43.6311 229.088 44.5C202.408 45.3689 181.002 64.7924 180.044 89C179.086 64.7924 157.68 45.3689 131 44.5C157.68 43.6311 179.086 24.2076 180.044 0Z" fill="black"/>
<path d="M179.5 22C179.959 34.2398 190.216 44.0607 203 44.5C190.216 44.9393 179.959 54.7602 179.5 67C179.041 54.7602 168.784 44.9393 156 44.5C168.784 44.0607 179.041 34.2398 179.5 22Z" fill="#FCF4F0"/>
</svg>
